{
  "accessors": [
    {
      "bufferView": 2,
      "componentType": 5126,
      "count": 864,
      "max": [
        74,
        23.501003265380859,
        9
      ],
      "min": [
        -74,
        -6,
        -11.519646644592285
      ],
      "type": "VEC3"
    },
    {
      "bufferView": 2,
      "byteOffset": 10368,
      "componentType": 5126,
      "count": 864,
      "max": [
        1,
        1,
        1
      ],
      "min": [
        -1,
        -1,
        -1
      ],
      "type": "VEC3"
    },
    {
      "bufferView": 3,
      "componentType": 5126,
      "count": 864,
      "max": [
        1,
        0.61237269639968872,
        1,
        1
      ],
      "min": [
        -1,
        -0.61237263679504395,
        -1,
        -1
      ],
      "type": "VEC4"
    },
    {
      "bufferView": 1,
      "componentType": 5126,
      "count": 864,
      "max": [
        0.875,
        1
      ],
      "min": [
        0,
        0.375
      ],
      "type": "VEC2"
    },
    {
      "bufferView": 0,
      "componentType": 5125,
      "count": 1296,
      "max": [
        863
      ],
      "min": [
        0
      ],
      "type": "SCALAR"
    },
    {
      "bufferView": 2,
      "byteOffset": 20736,
      "componentType": 5126,
      "count": 864,
      "max": [
        74.200004577636719,
        23.766788482666016,
        9.1999998092651367
      ],
      "min": [
        -74.200004577636719,
        -6.1999998092651367,
        -11.849825859069824
      ],
      "type": "VEC3"
    },
    {
      "bufferView": 2,
      "byteOffset": 31104,
      "componentType": 5126,
      "count": 864,
      "max": [
        1,
        1,
        1
      ],
      "min": [
        -1,
        -1,
        -1
      ],
      "type": "VEC3"
    },
    {
      "bufferView": 3,
      "byteOffset": 13824,
      "componentType": 5126,
      "count": 864,
      "max": [
        1,
        0.61237269639968872,
        1,
        1
      ],
      "min": [
        -1,
        -0.61237263679504395,
        -1,
        -1
      ],
      "type": "VEC4"
    },
    {
      "bufferView": 1,
      "byteOffset": 6912,
      "componentType": 5126,
      "count": 864,
      "max": [
        0.875,
        1
      ],
      "min": [
        0,
        0.375
      ],
      "type": "VEC2"
    },
    {
      "bufferView": 0,
      "byteOffset": 5184,
      "componentType": 5125,
      "count": 1296,
      "max": [
        863
      ],
      "min": [
        0
      ],
      "type": "SCALAR"
    }
  ],
  "asset": {
    "extras": {
      "author": "Wacky (https://sketchfab.com/iWacky)",
      "license": "CC-BY-NC-4.0 (http://creativecommons.org/licenses/by-nc/4.0/)",
      "source": "https://sketchfab.com/3d-models/1-satellite-87baf003bc584647a777c640a0ef98f8",
      "title": "1 - Satellite"
    },
    "generator": "Sketchfab-7.27.0",
    "version": "2.0"
  },
  "bufferViews": [
    {
      "buffer": 0,
      "byteLength": 10368,
      "byteOffset": 0,
      "name": "floatBufferViews",
      "target": 34963
    },
    {
      "buffer": 0,
      "byteLength": 13824,
      "byteOffset": 10368,
      "byteStride": 8,
      "name": "floatBufferViews",
      "target": 34962
    },
    {
      "buffer": 0,
      "byteLength": 41472,
      "byteOffset": 24192,
      "byteStride": 12,
      "name": "floatBufferViews",
      "target": 34962
    },
    {
      "buffer": 0,
      "byteLength": 27648,
      "byteOffset": 65664,
      "byteStride": 16,
      "name": "floatBufferViews",
      "target": 34962
    }
  ],
  "buffers": [
    {
      "byteLength": 93312,
      "uri": "scene.bin"
    }
  ],
  "images": [
    {
      "uri": "textures/material_baseColor.png"
    }
  ],
  "materials": [
    {
      "doubleSided": true,
      "emissiveFactor": [
        0,
        0,
        0
      ],
      "name": "material",
      "pbrMetallicRoughness": {
        "baseColorFactor": [
          1,
          1,
          1,
          1
        ],
        "baseColorTexture": {
          "index": 0,
          "texCoord": 0
        },
        "metallicFactor": 0,
        "roughnessFactor": 1
      }
    },
    {
      "doubleSided": false,
      "emissiveFactor": [
        0,
        0,
        0
      ],
      "name": "Material.001",
      "pbrMetallicRoughness": {
        "baseColorFactor": [
          0,
          0,
          0,
          1
        ],
        "metallicFactor": 0,
        "roughnessFactor": 0.80404082057734572
      }
    }
  ],
  "meshes": [
    {
      "name": "bone_0_0",
      "primitives": [
        {
          "attributes": {
            "NORMAL": 1,
            "POSITION": 0,
            "TANGENT": 2,
            "TEXCOORD_0": 3
          },
          "indices": 4,
          "material": 0,
          "mode": 4
        }
      ]
    },
    {
      "name": "bone_Material.001_0",
      "primitives": [
        {
          "attributes": {
            "NORMAL": 6,
            "POSITION": 5,
            "TANGENT": 7,
            "TEXCOORD_0": 8
          },
          "indices": 9,
          "material": 1,
          "mode": 4
        }
      ]
    }
  ],
  "nodes": [
    {
      "children": [
        1
      ],
      "name": "RootNode (gltf orientation matrix)",
      "rotation": [
        -0.70710678118654746,
        -0,
        -0,
        0.70710678118654757
      ]
    },
    {
      "children": [
        2
      ],
      "matrix": [
        0.9643591046333313,
        -0.14728845655918121,
        0.2198127806186676,
        0,
        0.18406018614768982,
        0.97023224830627441,
        -0.15738891065120697,
        0,
        -0.19008786976337433,
        0.1922382116317749,
        0.96276223659515381,
        0,
        142.57710266113281,
        -164.90791320800781,
        53.559818267822266,
        1
      ],
      "name": "RootNode (model correction matrix)"
    },
    {
      "children": [
        3
      ],
      "matrix": [
        1,
        0,
        0,
        0,
        0,
        0,
        1,
        0,
        0,
        -1,
        0,
        0,
        0,
        0,
        0,
        1
      ],
      "name": "day1.fbx"
    },
    {
      "children": [
        4,
        7,
        9
      ],
      "name": "RootNode"
    },
    {
      "children": [
        5
      ],
      "matrix": [
        -29.08647719990347,
        -5.5189064575668629,
        -95.517119101714371,
        0,
        56.639309131094492,
        79.467234285632031,
        -21.839123978419661,
        0,
        77.110087759933748,
        -60.452463565620441,
        -19.988346967737169,
        0,
        407.62454223632812,
        590.38623046875,
        -100.54539489746094,
        1
      ],
      "name": "Light"
    },
    {
      "children": [
        6
      ],
      "matrix": [
        1,
        0,
        0,
        0,
        0,
        2.2204460492503131e-16,
        1,
        0,
        0,
        -1,
        2.2204460492503131e-16,
        0,
        0,
        0,
        0,
        1
      ],
      "name": ""
    },
    {
      "name": ""
    },
    {
      "children": [
        8
      ],
      "matrix": [
        -65.155832803290963,
        -44.527135765708579,
        -61.417030473735487,
        0,
        -32.40134137821245,
        89.539574512336159,
        -30.542088974418615,
        0,
        68.592054721299746,
        -1.0718647115348782e-05,
        -72.767633623962695,
        0,
        735.88916015625,
        495.8309326171875,
        692.5791015625,
        1
      ],
      "name": "Camera"
    },
    {
      "name": ""
    },
    {
      "children": [
        10,
        11
      ],
      "matrix": [
        100,
        0,
        0,
        0,
        0,
        99.999999999998664,
        1.6292067073209114e-05,
        0,
        0,
        -1.6292067073209114e-05,
        99.999999999998664,
        0,
        0,
        0,
        0,
        1
      ],
      "name": "bone"
    },
    {
      "mesh": 0,
      "name": "bone_0_0"
    },
    {
      "mesh": 1,
      "name": "bone_Material.001_0"
    }
  ],
  "samplers": [
    {
      "magFilter": 9728,
      "minFilter": 9986,
      "wrapS": 10497,
      "wrapT": 10497
    }
  ],
  "scene": 0,
  "scenes": [
    {
      "name": "OSG_Scene",
      "nodes": [
        0
      ]
    }
  ],
  "textures": [
    {
      "sampler": 0,
      "source": 0
    }
  ]
}

