{
  "accessors": [
    {
      "bufferView": 2,
      "componentType": 5126,
      "count": 492,
      "max": [
        2.511043071746826,
        2.511042594909668,
        3.9575164318084717
      ],
      "min": [
        -2.511043071746826,
        -2.5110437870025635,
        3.6617982387542725
      ],
      "type": "VEC3"
    },
    {
      "bufferView": 2,
      "byteOffset": 5904,
      "componentType": 5126,
      "count": 492,
      "max": [
        0.872803270816803,
        0.8728033900260925,
        1.0
      ],
      "min": [
        -0.8728034496307373,
        -0.8728032112121582,
        -1.0
      ],
      "type": "VEC3"
    },
    {
      "bufferView": 1,
      "componentType": 5126,
      "count": 492,
      "max": [
        0.9229055047035217,
        0.9191931486129761
      ],
      "min": [
        0.0643494576215744,
        0.07048054039478302
      ],
      "type": "VEC2"
    },
    {
      "bufferView": 0,
      "componentType": 5125,
      "count": 852,
      "type": "SCALAR"
    },
    {
      "bufferView": 2,
      "byteOffset": 11808,
      "componentType": 5126,
      "count": 538,
      "max": [
        6.973794460296631,
        3.505643844604492,
        3.412781000137329
      ],
      "min": [
        -6.973794460296631,
        -1.2031508684158325,
        -6.595248222351074
      ],
      "type": "VEC3"
    },
    {
      "bufferView": 2,
      "byteOffset": 18264,
      "componentType": 5126,
      "count": 538,
      "max": [
        1.0,
        1.0,
        1.0
      ],
      "min": [
        -1.0,
        -1.0,
        -1.0
      ],
      "type": "VEC3"
    },
    {
      "bufferView": 1,
      "byteOffset": 3936,
      "componentType": 5126,
      "count": 538,
      "max": [
        0.9894271492958069,
        0.93305903673172
      ],
      "min": [
        0.00037701099063269794,
        0.02105245366692543
      ],
      "type": "VEC2"
    },
    {
      "bufferView": 0,
      "byteOffset": 3408,
      "componentType": 5125,
      "count": 1236,
      "type": "SCALAR"
    },
    {
      "bufferView": 3,
      "componentType": 5126,
      "count": 203,
      "max": [
        3.366666555404663
      ],
      "min": [
        0.0
      ],
      "type": "SCALAR"
    },
    {
      "bufferView": 4,
      "componentType": 5126,
      "count": 203,
      "max": [
        6.838973831690964e-14,
        0.8652368783950806,
        0.0
      ],
      "min": [
        -5.906386491005833e-14,
        0.0,
        0.0
      ],
      "type": "VEC3"
    },
    {
      "bufferView": 3,
      "byteOffset": 812,
      "componentType": 5126,
      "count": 203,
      "max": [
        3.366666555404663
      ],
      "min": [
        0.0
      ],
      "type": "SCALAR"
    },
    {
      "bufferView": 5,
      "componentType": 5126,
      "count": 203,
      "max": [
        -0.10828139632940292,
        0.6719760298728943,
        0.6719760298728943,
        0.7071067690849304
      ],
      "min": [
        -0.7071067690849304,
        -0.6987668871879578,
        -0.6987668871879578,
        0.10828139632940292
      ],
      "type": "VEC4"
    },
    {
      "bufferView": 3,
      "byteOffset": 1624,
      "componentType": 5126,
      "count": 102,
      "max": [
        3.366666555404663
      ],
      "min": [
        0.0
      ],
      "type": "SCALAR"
    },
    {
      "bufferView": 4,
      "byteOffset": 2436,
      "componentType": 5126,
      "count": 102,
      "max": [
        1.0,
        1.0,
        1.0
      ],
      "min": [
        0.9999999403953552,
        0.9999999403953552,
        1.0
      ],
      "type": "VEC3"
    }
  ],
  "animations": [
    {
      "channels": [
        {
          "sampler": 0,
          "target": {
            "node": 4,
            "path": "translation"
          }
        },
        {
          "sampler": 1,
          "target": {
            "node": 5,
            "path": "rotation"
          }
        },
        {
          "sampler": 2,
          "target": {
            "node": 5,
            "path": "scale"
          }
        }
      ],
      "name": "ArmatureAction",
      "samplers": [
        {
          "input": 8,
          "interpolation": "LINEAR",
          "output": 9
        },
        {
          "input": 10,
          "interpolation": "LINEAR",
          "output": 11
        },
        {
          "input": 12,
          "interpolation": "LINEAR",
          "output": 13
        }
      ]
    }
  ],
  "asset": {
    "extras": {
      "author": "RC-Studios (https://sketchfab.com/RC-Studios)",
      "license": "CC-BY-NC-4.0 (http://creativecommons.org/licenses/by-nc/4.0/)",
      "source": "https://sketchfab.com/3d-models/low-poly-propeller-plane-3ca91472b1b64072a0d3a64d86690df8",
      "title": "Low-poly Propeller Plane"
    },
    "generator": "Sketchfab-10.53.0",
    "version": "2.0"
  },
  "bufferViews": [
    {
      "buffer": 0,
      "byteLength": 8352,
      "name": "floatBufferViews",
      "target": 34963
    },
    {
      "buffer": 0,
      "byteLength": 8240,
      "byteOffset": 8352,
      "byteStride": 8,
      "name": "floatBufferViews",
      "target": 34962
    },
    {
      "buffer": 0,
      "byteLength": 24720,
      "byteOffset": 16592,
      "byteStride": 12,
      "name": "floatBufferViews",
      "target": 34962
    },
    {
      "buffer": 0,
      "byteLength": 2032,
      "byteOffset": 41312,
      "name": "floatBufferViews"
    },
    {
      "buffer": 0,
      "byteLength": 3660,
      "byteOffset": 43344,
      "byteStride": 12,
      "name": "floatBufferViews"
    },
    {
      "buffer": 0,
      "byteLength": 3248,
      "byteOffset": 47004,
      "byteStride": 16,
      "name": "floatBufferViews"
    }
  ],
  "buffers": [
    {
      "byteLength": 50252,
      "uri": "scene.bin"
    }
  ],
  "images": [
    {
      "uri": "textures/Material.001_baseColor.png"
    },
    {
      "uri": "textures/Material_baseColor.png"
    }
  ],
  "materials": [
    {
      "doubleSided": true,
      "name": "Material.001",
      "pbrMetallicRoughness": {
        "baseColorTexture": {
          "index": 0
        },
        "metallicFactor": 0.0,
        "roughnessFactor": 0.0
      }
    },
    {
      "doubleSided": true,
      "name": "Material",
      "pbrMetallicRoughness": {
        "baseColorTexture": {
          "index": 1
        },
        "metallicFactor": 0.0
      }
    }
  ],
  "meshes": [
    {
      "name": "Object_0",
      "primitives": [
        {
          "attributes": {
            "NORMAL": 1,
            "POSITION": 0,
            "TEXCOORD_0": 2
          },
          "indices": 3,
          "material": 0,
          "mode": 4
        }
      ]
    },
    {
      "name": "Object_1",
      "primitives": [
        {
          "attributes": {
            "NORMAL": 5,
            "POSITION": 4,
            "TEXCOORD_0": 6
          },
          "indices": 7,
          "material": 1,
          "mode": 4
        }
      ]
    }
  ],
  "nodes": [
    {
      "children": [
        1
      ],
      "matrix": [
        1.0,
        0.0,
        0.0,
        0.0,
        0.0,
        2.220446049250313e-16,
        -1.0,
        0.0,
        0.0,
        1.0,
        2.220446049250313e-16,
        0.0,
        0.0,
        0.0,
        0.0,
        1.0
      ],
      "name": "Sketchfab_model"
    },
    {
      "children": [
        2
      ],
      "name": "root"
    },
    {
      "children": [
        3
      ],
      "matrix": [
        1.0,
        0.0,
        0.0,
        0.0,
        0.0,
        2.220446049250313e-16,
        1.0,
        0.0,
        0.0,
        -1.0,
        2.220446049250313e-16,
        0.0,
        0.0,
        0.0,
        0.0,
        1.0
      ],
      "name": "GLTF_SceneRootNode"
    },
    {
      "children": [
        4
      ],
      "name": "Armature_4"
    },
    {
      "children": [
        5,
        8
      ],
      "name": "Bone_3",
      "rotation": [
        0.7071068286895752,
        -1.3767878215276141e-07,
        -1.3767878215276141e-07,
        0.7071068286895752
      ]
    },
    {
      "children": [
        6
      ],
      "name": "Bone.001_1",
      "rotation": [
        -0.7071068286895752,
        1.3767878215276141e-07,
        1.3767878215276141e-07,
        0.7071068286895752
      ],
      "translation": [
        9.368591236125212e-08,
        3.757706880569458,
        -2.784364880881185e-07
      ]
    },
    {
      "children": [
        7
      ],
      "matrix": [
        1.0,
        -6.71616156919618e-33,
        5.90521783609163e-20,
        0.0,
        2.2387205999054196e-33,
        1.0,
        7.582177480270832e-14,
        0.0,
        -5.90521783609163e-20,
        -7.582177480270832e-14,
        1.0,
        0.0,
        -9.368601894266249e-08,
        -2.384185791015625e-07,
        -3.757706880569458,
        1.0
      ],
      "name": "Cylinder_0"
    },
    {
      "mesh": 0,
      "name": "Object_7"
    },
    {
      "children": [
        9
      ],
      "matrix": [
        0.9999999999999242,
        0.0,
        -3.8941437578224306e-07,
        0.0,
        -3.8941437578224306e-07,
        1.1102230246251565e-16,
        -0.9999999999999242,
        0.0,
        0.0,
        0.9999999999999999,
        1.1102230246251565e-16,
        0.0,
        0.0,
        0.0,
        0.0,
        1.0
      ],
      "name": "Cube_2"
    },
    {
      "mesh": 1,
      "name": "Object_9"
    }
  ],
  "samplers": [
    {
      "magFilter": 9729,
      "minFilter": 9987,
      "wrapS": 10497,
      "wrapT": 10497
    }
  ],
  "scene": 0,
  "scenes": [
    {
      "name": "Sketchfab_Scene",
      "nodes": [
        0
      ]
    }
  ],
  "textures": [
    {
      "sampler": 0,
      "source": 0
    },
    {
      "sampler": 0,
      "source": 1
    }
  ]
}
